<mxfile host="app.diagrams.net" modified="2023-07-11T06:11:58.912Z" agent="Mozilla/5.0 (Windows NT 10.0; Win64; x64) AppleWebKit/537.36 (KHTML, like Gecko) Chrome/114.0.0.0 Safari/537.36 Edg/114.0.1823.67" etag="fTabfkl71OOuReA26oHC" version="21.5.2" type="device">
  <diagram id="R2lEEEUBdFMjLlhIrx00" name="Page-1">
    <mxGraphModel dx="504" dy="1899" grid="1" gridSize="10" guides="1" tooltips="1" connect="1" arrows="1" fold="1" page="1" pageScale="1" pageWidth="850" pageHeight="1100" math="0" shadow="0" extFonts="Permanent Marker^https://fonts.googleapis.com/css?family=Permanent+Marker">
      <root>
        <mxCell id="0" />
        <mxCell id="1" parent="0" />
        <mxCell id="ygUOKwCOMMTxC8dEY-Oc-25" style="edgeStyle=none;curved=1;rounded=0;orthogonalLoop=1;jettySize=auto;html=1;exitX=0.5;exitY=1;exitDx=0;exitDy=0;entryX=0.5;entryY=0;entryDx=0;entryDy=0;fontSize=12;startSize=8;endSize=8;endArrow=none;endFill=0;" edge="1" parent="1">
          <mxGeometry relative="1" as="geometry">
            <mxPoint x="401" y="300" as="sourcePoint" />
            <mxPoint x="401" y="410" as="targetPoint" />
          </mxGeometry>
        </mxCell>
        <mxCell id="ygUOKwCOMMTxC8dEY-Oc-1" value="device" style="rounded=0;whiteSpace=wrap;html=1;fontSize=16;" vertex="1" parent="1">
          <mxGeometry x="340" y="240" width="120" height="60" as="geometry" />
        </mxCell>
        <mxCell id="ygUOKwCOMMTxC8dEY-Oc-6" style="edgeStyle=none;curved=1;rounded=0;orthogonalLoop=1;jettySize=auto;html=1;exitX=1;exitY=0;exitDx=0;exitDy=0;entryX=0;entryY=1;entryDx=0;entryDy=0;fontSize=12;startSize=8;endSize=8;strokeColor=default;endArrow=none;endFill=0;" edge="1" parent="1" source="ygUOKwCOMMTxC8dEY-Oc-2" target="ygUOKwCOMMTxC8dEY-Oc-1">
          <mxGeometry relative="1" as="geometry" />
        </mxCell>
        <mxCell id="ygUOKwCOMMTxC8dEY-Oc-2" value="deviceStatus" style="ellipse;whiteSpace=wrap;html=1;fontSize=16;" vertex="1" parent="1">
          <mxGeometry x="100" y="330" width="120" height="80" as="geometry" />
        </mxCell>
        <mxCell id="ygUOKwCOMMTxC8dEY-Oc-7" style="edgeStyle=none;curved=1;rounded=0;orthogonalLoop=1;jettySize=auto;html=1;exitX=0.5;exitY=0;exitDx=0;exitDy=0;entryX=0.25;entryY=1;entryDx=0;entryDy=0;fontSize=12;startSize=8;endSize=8;endArrow=none;endFill=0;" edge="1" parent="1" source="ygUOKwCOMMTxC8dEY-Oc-3" target="ygUOKwCOMMTxC8dEY-Oc-1">
          <mxGeometry relative="1" as="geometry" />
        </mxCell>
        <mxCell id="ygUOKwCOMMTxC8dEY-Oc-3" value="deviceName" style="ellipse;whiteSpace=wrap;html=1;fontSize=16;" vertex="1" parent="1">
          <mxGeometry x="200" y="410" width="120" height="80" as="geometry" />
        </mxCell>
        <mxCell id="ygUOKwCOMMTxC8dEY-Oc-8" style="edgeStyle=none;curved=1;rounded=0;orthogonalLoop=1;jettySize=auto;html=1;exitX=0.5;exitY=0;exitDx=0;exitDy=0;entryX=0.75;entryY=1;entryDx=0;entryDy=0;fontSize=12;startSize=8;endSize=8;endArrow=none;endFill=0;" edge="1" parent="1" source="ygUOKwCOMMTxC8dEY-Oc-4" target="ygUOKwCOMMTxC8dEY-Oc-1">
          <mxGeometry relative="1" as="geometry" />
        </mxCell>
        <mxCell id="ygUOKwCOMMTxC8dEY-Oc-4" value="deviceId" style="ellipse;whiteSpace=wrap;html=1;fontSize=16;" vertex="1" parent="1">
          <mxGeometry x="490" y="400" width="120" height="80" as="geometry" />
        </mxCell>
        <mxCell id="ygUOKwCOMMTxC8dEY-Oc-9" style="edgeStyle=none;curved=1;rounded=0;orthogonalLoop=1;jettySize=auto;html=1;exitX=0;exitY=0;exitDx=0;exitDy=0;entryX=1;entryY=1;entryDx=0;entryDy=0;fontSize=12;startSize=8;endSize=8;endArrow=none;endFill=0;" edge="1" parent="1" source="ygUOKwCOMMTxC8dEY-Oc-5" target="ygUOKwCOMMTxC8dEY-Oc-1">
          <mxGeometry relative="1" as="geometry" />
        </mxCell>
        <mxCell id="ygUOKwCOMMTxC8dEY-Oc-5" value="deviceTime" style="ellipse;whiteSpace=wrap;html=1;fontSize=16;" vertex="1" parent="1">
          <mxGeometry x="610" y="320" width="120" height="80" as="geometry" />
        </mxCell>
        <mxCell id="ygUOKwCOMMTxC8dEY-Oc-16" style="edgeStyle=none;curved=1;rounded=0;orthogonalLoop=1;jettySize=auto;html=1;exitX=0.5;exitY=1;exitDx=0;exitDy=0;fontSize=12;startSize=8;endSize=8;endArrow=none;endFill=0;" edge="1" parent="1" source="ygUOKwCOMMTxC8dEY-Oc-10" target="ygUOKwCOMMTxC8dEY-Oc-15">
          <mxGeometry relative="1" as="geometry" />
        </mxCell>
        <mxCell id="ygUOKwCOMMTxC8dEY-Oc-18" value="1" style="edgeLabel;html=1;align=center;verticalAlign=middle;resizable=0;points=[];fontSize=16;" vertex="1" connectable="0" parent="ygUOKwCOMMTxC8dEY-Oc-16">
          <mxGeometry x="-0.0333" y="3" relative="1" as="geometry">
            <mxPoint as="offset" />
          </mxGeometry>
        </mxCell>
        <mxCell id="ygUOKwCOMMTxC8dEY-Oc-10" value="floor" style="rounded=0;whiteSpace=wrap;html=1;fontSize=16;" vertex="1" parent="1">
          <mxGeometry x="340" width="120" height="60" as="geometry" />
        </mxCell>
        <mxCell id="ygUOKwCOMMTxC8dEY-Oc-34" style="edgeStyle=none;curved=1;rounded=0;orthogonalLoop=1;jettySize=auto;html=1;exitX=0;exitY=0.5;exitDx=0;exitDy=0;fontSize=12;startSize=8;endSize=8;endArrow=none;endFill=0;" edge="1" parent="1" source="ygUOKwCOMMTxC8dEY-Oc-11" target="ygUOKwCOMMTxC8dEY-Oc-10">
          <mxGeometry relative="1" as="geometry" />
        </mxCell>
        <mxCell id="ygUOKwCOMMTxC8dEY-Oc-11" value="floorName" style="ellipse;whiteSpace=wrap;html=1;fontSize=16;" vertex="1" parent="1">
          <mxGeometry x="550" y="-40" width="120" height="80" as="geometry" />
        </mxCell>
        <mxCell id="ygUOKwCOMMTxC8dEY-Oc-13" style="edgeStyle=none;curved=1;rounded=0;orthogonalLoop=1;jettySize=auto;html=1;exitX=0;exitY=0.5;exitDx=0;exitDy=0;entryX=1;entryY=0.75;entryDx=0;entryDy=0;fontSize=12;startSize=8;endSize=8;endArrow=none;endFill=0;" edge="1" parent="1" source="ygUOKwCOMMTxC8dEY-Oc-12" target="ygUOKwCOMMTxC8dEY-Oc-10">
          <mxGeometry relative="1" as="geometry" />
        </mxCell>
        <mxCell id="ygUOKwCOMMTxC8dEY-Oc-12" value="floorId" style="ellipse;whiteSpace=wrap;html=1;fontSize=16;" vertex="1" parent="1">
          <mxGeometry x="550" y="70" width="120" height="80" as="geometry" />
        </mxCell>
        <mxCell id="ygUOKwCOMMTxC8dEY-Oc-17" style="edgeStyle=none;curved=1;rounded=0;orthogonalLoop=1;jettySize=auto;html=1;exitX=0.5;exitY=1;exitDx=0;exitDy=0;entryX=0.5;entryY=0;entryDx=0;entryDy=0;fontSize=12;startSize=8;endSize=8;endArrow=none;endFill=0;" edge="1" parent="1" source="ygUOKwCOMMTxC8dEY-Oc-15" target="ygUOKwCOMMTxC8dEY-Oc-1">
          <mxGeometry relative="1" as="geometry" />
        </mxCell>
        <mxCell id="ygUOKwCOMMTxC8dEY-Oc-22" value="n" style="edgeLabel;html=1;align=center;verticalAlign=middle;resizable=0;points=[];fontSize=16;" vertex="1" connectable="0" parent="ygUOKwCOMMTxC8dEY-Oc-17">
          <mxGeometry x="-0.1" y="3" relative="1" as="geometry">
            <mxPoint as="offset" />
          </mxGeometry>
        </mxCell>
        <mxCell id="ygUOKwCOMMTxC8dEY-Oc-15" value="belong" style="rhombus;whiteSpace=wrap;html=1;fontSize=16;" vertex="1" parent="1">
          <mxGeometry x="360" y="120" width="80" height="80" as="geometry" />
        </mxCell>
        <mxCell id="ygUOKwCOMMTxC8dEY-Oc-30" style="edgeStyle=none;curved=1;rounded=0;orthogonalLoop=1;jettySize=auto;html=1;exitX=0.5;exitY=1;exitDx=0;exitDy=0;fontSize=12;startSize=8;endSize=8;endArrow=none;endFill=0;" edge="1" parent="1" source="ygUOKwCOMMTxC8dEY-Oc-23" target="ygUOKwCOMMTxC8dEY-Oc-29">
          <mxGeometry relative="1" as="geometry" />
        </mxCell>
        <mxCell id="ygUOKwCOMMTxC8dEY-Oc-31" value="1" style="edgeLabel;html=1;align=center;verticalAlign=middle;resizable=0;points=[];fontSize=16;" vertex="1" connectable="0" parent="ygUOKwCOMMTxC8dEY-Oc-30">
          <mxGeometry x="-0.1" relative="1" as="geometry">
            <mxPoint as="offset" />
          </mxGeometry>
        </mxCell>
        <mxCell id="ygUOKwCOMMTxC8dEY-Oc-23" value="place" style="rounded=0;whiteSpace=wrap;html=1;fontSize=16;" vertex="1" parent="1">
          <mxGeometry x="340" y="-230" width="120" height="60" as="geometry" />
        </mxCell>
        <mxCell id="ygUOKwCOMMTxC8dEY-Oc-24" value="deviceType" style="ellipse;whiteSpace=wrap;html=1;fontSize=16;" vertex="1" parent="1">
          <mxGeometry x="340" y="410" width="120" height="80" as="geometry" />
        </mxCell>
        <mxCell id="ygUOKwCOMMTxC8dEY-Oc-35" style="edgeStyle=none;curved=1;rounded=0;orthogonalLoop=1;jettySize=auto;html=1;exitX=1;exitY=0.5;exitDx=0;exitDy=0;entryX=0;entryY=0.5;entryDx=0;entryDy=0;fontSize=12;startSize=8;endSize=8;endArrow=none;endFill=0;" edge="1" parent="1" source="ygUOKwCOMMTxC8dEY-Oc-27" target="ygUOKwCOMMTxC8dEY-Oc-23">
          <mxGeometry relative="1" as="geometry" />
        </mxCell>
        <mxCell id="ygUOKwCOMMTxC8dEY-Oc-27" value="placeName" style="ellipse;whiteSpace=wrap;html=1;fontSize=16;" vertex="1" parent="1">
          <mxGeometry x="170" y="-290" width="120" height="80" as="geometry" />
        </mxCell>
        <mxCell id="ygUOKwCOMMTxC8dEY-Oc-36" style="edgeStyle=none;curved=1;rounded=0;orthogonalLoop=1;jettySize=auto;html=1;exitX=1;exitY=0.5;exitDx=0;exitDy=0;entryX=0;entryY=0.75;entryDx=0;entryDy=0;fontSize=12;startSize=8;endSize=8;endArrow=none;endFill=0;" edge="1" parent="1" source="ygUOKwCOMMTxC8dEY-Oc-28" target="ygUOKwCOMMTxC8dEY-Oc-23">
          <mxGeometry relative="1" as="geometry" />
        </mxCell>
        <mxCell id="ygUOKwCOMMTxC8dEY-Oc-28" value="placeId" style="ellipse;whiteSpace=wrap;html=1;fontSize=16;" vertex="1" parent="1">
          <mxGeometry x="170" y="-180" width="120" height="80" as="geometry" />
        </mxCell>
        <mxCell id="ygUOKwCOMMTxC8dEY-Oc-32" style="edgeStyle=none;curved=1;rounded=0;orthogonalLoop=1;jettySize=auto;html=1;exitX=0.5;exitY=1;exitDx=0;exitDy=0;entryX=0.5;entryY=0;entryDx=0;entryDy=0;fontSize=12;startSize=8;endSize=8;endArrow=none;endFill=0;" edge="1" parent="1" source="ygUOKwCOMMTxC8dEY-Oc-29" target="ygUOKwCOMMTxC8dEY-Oc-10">
          <mxGeometry relative="1" as="geometry" />
        </mxCell>
        <mxCell id="ygUOKwCOMMTxC8dEY-Oc-33" value="n" style="edgeLabel;html=1;align=center;verticalAlign=middle;resizable=0;points=[];fontSize=16;" vertex="1" connectable="0" parent="ygUOKwCOMMTxC8dEY-Oc-32">
          <mxGeometry x="-0.075" relative="1" as="geometry">
            <mxPoint as="offset" />
          </mxGeometry>
        </mxCell>
        <mxCell id="ygUOKwCOMMTxC8dEY-Oc-29" value="belong" style="rhombus;whiteSpace=wrap;html=1;fontSize=16;" vertex="1" parent="1">
          <mxGeometry x="360" y="-120" width="80" height="80" as="geometry" />
        </mxCell>
      </root>
    </mxGraphModel>
  </diagram>
</mxfile>
